<svg width="42" height="42" viewBox="0 0 42 42" fill="none" xmlns="http://www.w3.org/2000/svg">
<path d="M26.4445 5.04932C26.5766 6.77483 26.0308 8.48389 24.9233 9.8136C24.3928 10.4732 23.7197 11.0039 22.9544 11.3658C22.1893 11.7276 21.352 11.911 20.5056 11.9023C20.4515 11.0725 20.5616 10.2403 20.8294 9.45303C21.0973 8.66581 21.5177 7.93911 22.0665 7.31445C23.1891 6.03581 24.7522 5.22705 26.4445 5.04932Z" fill="white"/>
<path d="M29.532 17.6077C28.9696 18.5985 28.667 19.7154 28.6523 20.8547C28.6538 22.136 29.0322 23.3888 29.7408 24.4565C30.4494 25.5242 31.4565 26.3598 32.6367 26.8589C32.1727 28.3664 31.4733 29.7909 30.5643 31.0798C29.3435 32.9059 28.0637 34.6898 26.0322 34.7228C25.0661 34.7451 24.414 34.4673 23.7343 34.1778C23.0255 33.8758 22.2869 33.5612 21.131 33.5612C19.9052 33.5612 19.1334 33.8859 18.3892 34.1992C17.7459 34.4699 17.1232 34.7319 16.2456 34.7684C14.311 34.84 12.8325 32.8194 11.5674 31.0105C9.03882 27.3164 7.06993 20.5997 9.70948 16.0296C10.3189 14.9346 11.2015 14.0161 12.2714 13.3636C13.3412 12.7111 14.5619 12.3469 15.8145 12.3064C16.9117 12.2839 17.9646 12.7068 18.8876 13.0776C19.5936 13.3611 20.2236 13.6141 20.7395 13.6141C21.193 13.6141 21.8056 13.3711 22.5193 13.0878C23.6436 12.6416 25.0194 12.0956 26.4214 12.2428C27.4958 12.2764 28.5475 12.56 29.4932 13.0712C30.4388 13.5825 31.2522 14.3071 31.8688 15.1876C30.8982 15.7843 30.0944 16.6169 29.532 17.6077Z" fill="white"/>
</svg>
